<svg xmlns="http://www.w3.org/2000/svg" viewBox="0 0 24 24" role="img" aria-labelledby="title">
  <title id="title">Discord</title>
  <path fill="#DE5E9D" d="M19.54 5.34A16.3 16.3 0 0 0 15.44 4l-.5 1.03a15.1 15.1 0 0 0-5.88 0L8.55 4a16.4 16.4 0 0 0-4.1 1.35C1.85 9.2 1.15 12.96 1.5 16.67a16.6 16.6 0 0 0 5.03 2.55l1.23-1.68a10.3 10.3 0 0 1-1.93-.93l.47-.36c3.72 1.72 7.75 1.72 11.43 0l.48.36c-.62.37-1.27.68-1.94.93l1.23 1.68a16.5 16.5 0 0 0 5.03-2.55c.42-4.3-.72-8.02-2.99-11.33zM8.37 14.4c-1.12 0-2.03-1.03-2.03-2.29s.89-2.29 2.03-2.29c1.15 0 2.05 1.04 2.03 2.29 0 1.26-.9 2.29-2.03 2.29zm7.26 0c-1.12 0-2.03-1.03-2.03-2.29s.89-2.29 2.03-2.29c1.15 0 2.05 1.04 2.03 2.29 0 1.26-.88 2.29-2.03 2.29z"/>
</svg>
