<svg xmlns="http://www.w3.org/2000/svg" viewBox="0 0 24 24" role="img" aria-labelledby="title">
  <title id="title">GitHub</title>
  <path fill="#DE5E9D" d="M12 .7C5.73.7.7 5.73.7 12c0 5.02 3.25 9.28 7.76 10.78.57.1.78-.25.78-.55v-2.17c-3.16.69-3.83-1.34-3.83-1.34-.52-1.31-1.26-1.66-1.26-1.66-1.03-.7.08-.69.08-.69 1.14.08 1.74 1.17 1.74 1.17 1.01 1.73 2.65 1.23 3.3.94.1-.73.4-1.23.72-1.51-2.52-.29-5.17-1.26-5.17-5.59 0-1.24.44-2.25 1.17-3.04-.12-.29-.51-1.44.11-3 0 0 .95-.3 3.11 1.16A10.8 10.8 0 0 1 12 6.12c.96 0 1.93.13 2.83.38 2.16-1.46 3.11-1.16 3.11-1.16.62 1.56.23 2.71.11 3 .73.79 1.17 1.8 1.17 3.04 0 4.34-2.65 5.3-5.18 5.58.41.35.77 1.04.77 2.1v3.17c0 .3.21.66.78.55A11.31 11.31 0 0 0 23.3 12C23.3 5.73 18.27.7 12 .7z"/>
</svg>
